<svg xmlns="http://www.w3.org/2000/svg">
	<symbol id="instagram" viewBox="0 0 24 24">
			<path d="m1.5 1.633c-1.886 1.959-1.5 4.04-1.5 10.362 0 5.25-.916 10.513 3.878 11.752 1.497.385 14.761.385 16.256-.002 1.996-.515 3.62-2.134 3.842-4.957.031-.394.031-13.185-.001-13.587-.236-3.007-2.087-4.74-4.526-5.091-.559-.081-.671-.105-3.539-.11-10.173.005-12.403-.448-14.41 1.633z" fill="url(#SVGID_1_)"/><path d="m11.998 3.139c-3.631 0-7.079-.323-8.396 3.057-.544 1.396-.465 3.209-.465 5.805 0 2.278-.073 4.419.465 5.804 1.314 3.382 4.79 3.058 8.394 3.058 3.477 0 7.062.362 8.395-3.058.545-1.41.465-3.196.465-5.804 0-3.462.191-5.697-1.488-7.375-1.7-1.7-3.999-1.487-7.374-1.487zm-.794 1.597c7.574-.012 8.538-.854 8.006 10.843-.189 4.137-3.339 3.683-7.211 3.683-7.06 0-7.263-.202-7.263-7.265 0-7.145.56-7.257 6.468-7.263zm5.524 1.471c-.587 0-1.063.476-1.063 1.063s.476 1.063 1.063 1.063 1.063-.476 1.063-1.063-.476-1.063-1.063-1.063zm-4.73 1.243c-2.513 0-4.55 2.038-4.55 4.551s2.037 4.55 4.55 4.55 4.549-2.037 4.549-4.55-2.036-4.551-4.549-4.551zm0 1.597c3.905 0 3.91 5.908 0 5.908-3.904 0-3.91-5.908 0-5.908z" fill="#fff"/>
	</symbol>
	<symbol id="vk" viewBox="0 0 64 64">
		<g>
			<path d="M9.62,19.77H17.3a.79.79,0,0,1,.74.51c.85,2.19,4.38,10.76,7.61,11.46,2.4,0,1.55-11.4-1.5-11.4-.8,0,1.42-1.42,1.57-1.48a16.38,16.38,0,0,1,8.66,0c1.53.64,1.79,2.43,1.83,3.95s-1.7,8,.59,8.7c3,.92,6.86-8.49,7.76-10.8a.79.79,0,0,1,.74-.5h8.55a.8.8,0,0,1,.74,1.11,74.74,74.74,0,0,1-6.31,11.52,1.59,1.59,0,0,0,.16,2C51,37.58,58,45.34,54,45.34H45.37a1.57,1.57,0,0,1-1.18-.53c-1.34-1.48-5.24-5.6-7-5.27-1.46.27-1.6,2.75-1.53,4.37a1.6,1.6,0,0,1-1.48,1.68c-1.53.09-3.62.13-3.81.12-6.1-.39-9.71-4.46-13.16-9A56.33,56.33,0,0,1,8.86,20.83.81.81,0,0,1,9.62,19.77Z"/>
		</g>
	</symbol>
	<symbol id="email" viewBox="0 0 512 512">
		<g>
		<path d="M467,76H45C20.137,76,0,96.262,0,121v270c0,24.885,20.285,45,45,45h422c24.655,0,45-20.03,45-45V121
			C512,96.306,491.943,76,467,76z M460.698,106c-9.194,9.145-167.415,166.533-172.878,171.967c-8.5,8.5-19.8,13.18-31.82,13.18
			s-23.32-4.681-31.848-13.208C220.478,274.284,64.003,118.634,51.302,106H460.698z M30,384.894V127.125L159.638,256.08L30,384.894z
			 M51.321,406l129.587-128.763l22.059,21.943c14.166,14.166,33,21.967,53.033,21.967c20.033,0,38.867-7.801,53.005-21.939
			l22.087-21.971L460.679,406H51.321z M482,384.894L352.362,256.08L482,127.125V384.894z"/>
		</g>
	</symbol>
	<symbol id="arrow" viewBox="0 0 404.257 404.257">
		<g>
			<polygon points="386.257,114.331 202.128,252.427 18,114.331 0,138.331 202.128,289.927 404.257,138.331 "/>
		</g>
	</symbol>
	<symbol id="telegram" viewBox="1 -35 511.99993 511">
		<g>
			<path d="m121.453125 253.171875 63.554687 158.886719 82.75-82.753906 141.535157 112.503906 102.707031-441.308594-512 205.480469zm-39.933594-47.640625 244.046875-97.945312-194.074218 117.363281zm287.535157-89.25-161.980469 148.1875-19.484375 73.425781-36.035156-90.085937zm-149.851563 219.230469 9.816406-36.996094 15.144531 12.035156zm171.65625 53.394531-147.386719-117.152344 221.902344-203.007812zm0 0"/>
		</g>
	</symbol>
	<symbol id="whatsapp" viewBox="0 0 512 512">
		<g>
			<path d="M440.164,71.836C393.84,25.511,332.249,0,266.737,0S139.633,25.511,93.308,71.836S21.473,179.751,21.473,245.263
			c0,41.499,10.505,82.279,30.445,118.402L0,512l148.333-51.917c36.124,19.938,76.904,30.444,118.403,30.444
			c65.512,0,127.104-25.512,173.427-71.836C486.488,372.367,512,310.776,512,245.263S486.488,118.16,440.164,71.836z
			M266.737,460.495c-38.497,0-76.282-10.296-109.267-29.776l-6.009-3.549L48.952,463.047l35.878-102.508l-3.549-6.009
			c-19.479-32.985-29.775-70.769-29.775-109.266c0-118.679,96.553-215.231,215.231-215.231s215.231,96.553,215.231,215.231
			C481.968,363.943,385.415,460.495,266.737,460.495z"/>
		</g>
		<g>
			<path d="M398.601,304.521l-35.392-35.393c-11.709-11.71-30.762-11.71-42.473,0l-13.538,13.538
				c-32.877-17.834-60.031-44.988-77.866-77.865l13.538-13.539c5.673-5.672,8.796-13.214,8.796-21.236
				c0-8.022-3.124-15.564-8.796-21.236l-35.393-35.393c-5.672-5.672-13.214-8.796-21.236-8.796c-8.023,0-15.564,3.124-21.236,8.796
				l-28.314,28.314c-15.98,15.98-16.732,43.563-2.117,77.664c12.768,29.791,36.145,62.543,65.825,92.223
				c29.68,29.68,62.432,53.057,92.223,65.825c16.254,6.965,31.022,10.44,43.763,10.44c13.992,0,25.538-4.193,33.901-12.557
				l28.314-28.314c5.673-5.672,8.796-13.214,8.796-21.236S404.273,310.193,398.601,304.521z M349.052,354.072
				c-6.321,6.32-23.827,4.651-44.599-4.252c-26.362-11.298-55.775-32.414-82.818-59.457c-27.043-27.043-48.158-56.455-59.457-82.818
				c-8.903-20.772-10.571-38.278-4.252-44.599l28.315-28.314l35.393,35.393l-28.719,28.719l4.53,9.563
				c22.022,46.49,59.753,84.221,106.244,106.244l9.563,4.53l28.719-28.719l35.393,35.393L349.052,354.072z"/>
		</g>
	</symbol>
	<symbol id="viber" viewBox="0 0 226.978 226.978">
		<g>
			<path d="M199.569,25.393C181.627,7.803,152.62-0.72,113.339,0.048C73.731,0.827,47.255,7.779,30.018,21.927
		C13.352,35.605,5.59,55.62,5.59,84.915v29.898c0,34.584,18.532,72.605,53.951,78.358c4.089,0.669,7.941-2.111,8.605-6.201
		c0.664-4.088-2.112-7.941-6.201-8.605c-26.861-4.363-41.355-36-41.355-63.552V84.915c0-42.006,15.565-68.347,93.043-69.871
		c35.125-0.696,60.477,6.395,75.433,21.059c11.655,11.429,17.321,27.395,17.321,48.812v29.898c0,45.274-20.321,65.243-72.441,71.123
		H96.988c-1.989,0-3.897,0.79-5.303,2.197l-26.041,26.041c-2.929,2.929-2.929,7.678,0,10.607c1.464,1.464,3.384,2.197,5.303,2.197
		c1.919,0,3.839-0.732,5.303-2.197l23.845-23.845h34.27c0.276,0,0.553-0.015,0.828-0.046c29.828-3.313,50.254-11.076,64.279-24.432
		c14.747-14.044,21.916-34.208,21.916-61.646V84.915C221.388,59.616,214.047,39.59,199.569,25.393z"/>
	<path d="M118.17,48.988c0.001,0,0.001,0,0.003,0c12.085,0,23.447,4.707,31.993,13.253c8.547,8.547,13.254,19.911,13.253,31.998
		c0,4.142,3.357,7.5,7.499,7.5c0.001,0,0.001,0,0.001,0c4.142,0,7.5-3.357,7.5-7.499c0.001-16.094-6.266-31.225-17.646-42.605
		c-11.379-11.38-26.507-17.646-42.6-17.646c-0.001,0-0.004,0-0.005,0c-4.142,0-7.499,3.358-7.499,7.5
		C110.67,45.63,114.028,48.988,118.17,48.988z"/>
	<path d="M118.168,75.362c10.408,0.002,18.877,8.47,18.878,18.877c0.001,4.142,3.358,7.5,7.501,7.499c4.143,0,7.5-3.359,7.499-7.501
		c-0.003-18.676-15.199-33.872-33.876-33.875h-0.001c-4.142,0-7.499,3.357-7.5,7.499C110.669,72.003,114.026,75.362,118.168,75.362z
		"/>
	<path d="M84.538,88.213c-3.419,2.338-4.296,7.005-1.959,10.424c2.337,3.419,7.005,4.295,10.424,1.958
		c2.689-1.838,8.987-6.144,8.545-14.752c-0.28-5.152-4.927-12.508-8.776-17.772C87.142,60.369,82.29,55.73,78.381,54.292
		c-3.65-1.359-7.467-1.388-11.353-0.084c-8.049,2.712-13.893,7.613-16.899,14.173c-2.927,6.386-2.862,13.725,0.189,21.228
		c7.206,17.678,17.294,33.155,30.051,46.067c12.845,12.689,28.321,22.777,46.006,29.987c3.827,1.557,7.613,2.336,11.252,2.336
		c3.49,0,6.845-0.716,9.971-2.149c6.56-3.007,11.46-8.85,14.175-16.909c1.3-3.877,1.271-7.692-0.077-11.317
		c-1.448-3.937-6.088-8.788-13.789-14.418c-5.265-3.849-12.621-8.496-17.793-8.777c-8.59-0.432-12.892,5.855-14.73,8.544
		c-2.338,3.419-1.463,8.086,1.956,10.425c3.42,2.339,8.086,1.463,10.425-1.956c0.816-1.193,1.282-1.735,1.549-1.972
		c4.21,1.349,16.215,10.169,18.376,13.549c0.053,0.216,0.065,0.545-0.135,1.144c-0.946,2.809-2.791,6.486-6.206,8.052
		c-3.199,1.464-6.834,0.566-9.316-0.443c-15.847-6.461-29.682-15.466-41.058-26.703c-11.301-11.439-20.306-25.274-26.763-41.115
		c-1.012-2.488-1.911-6.125-0.446-9.321c1.565-3.415,5.243-5.261,8.043-6.205c0.598-0.2,0.927-0.189,1.155-0.134
		c3.381,2.165,12.196,14.163,13.546,18.374C86.272,86.931,85.731,87.398,84.538,88.213z"/>
		</g>
	</symbol>
	<symbol id="skype" viewBox="0 0 512 512">
		<g>
			<path d="m374 512c-27.851562 0-54.324219-8.109375-77.125-23.546875-73.871094 12.914063-151.433594-9.257813-207.753906-65.574219-56.292969-56.296875-78.492188-133.851562-65.574219-207.753906-15.4375-22.800781-23.546875-49.273438-23.546875-77.125 0-76.09375 61.90625-138 138-138 27.851562 0 54.324219 8.109375 77.125 23.546875 161.027344-28.148437 301.582031 111.714844 273.328125 273.328125 15.4375 22.800781 23.546875 49.273438 23.546875 77.125 0 76.09375-61.90625 138-138 138zm-60.132812-60.617188c17.328124 13.488282 38.121093 20.617188 60.132812 20.617188 54.035156 0 98-43.960938 98-98 0-22.011719-7.128906-42.804688-20.617188-60.132812-3.632812-4.667969-5.015624-10.703126-3.769531-16.484376 29.984375-139.589843-94.375-262.777343-232.996093-232.996093-5.777344 1.242187-11.816407-.136719-16.484376-3.769531-17.328124-13.488282-38.121093-20.617188-60.132812-20.617188-54.035156 0-98 43.960938-98 98 0 22.011719 7.128906 42.804688 20.617188 60.132812 3.632812 4.667969 5.015624 10.703126 3.769531 16.484376-29.917969 139.277343 94.050781 262.84375 232.996093 232.996093 5.753907-1.238281 11.796876.121094 16.484376 3.769531zm40.800781-136.382812c0-54.007812-68.277344-70.515625-83.558594-75.207031-31.65625-9.714844-73.777344-20.546875-73.777344-42.792969 0-21.140625 26.867188-39 58.667969-39 25.300781 0 48.367188 11.457031 56.097656 27.859375 4.710938 9.988281 16.628906 14.273437 26.621094 9.5625 9.988281-4.710937 14.269531-16.625 9.5625-26.617187-15.738281-33.386719-54.875-50.804688-92.28125-50.804688-58.195312 0-98.667969 37.84375-98.667969 79 0 54.007812 68.277344 70.515625 83.558594 75.207031 31.65625 9.714844 73.777344 20.546875 73.777344 42.792969 0 21.140625-26.867188 39-58.667969 39-25.300781 0-48.367188-11.457031-56.097656-27.859375-4.710938-9.988281-16.628906-14.273437-26.621094-9.5625-9.988281 4.710937-14.269531 16.625-9.5625 26.617187 15.738281 33.386719 54.875 50.804688 92.28125 50.804688 58.195312 0 98.667969-37.84375 98.667969-79zm0 0"/>
		</g>
	</symbol>
	<symbol id="message" viewBox="0 0 512 512">
		<g>
			<path d="m0 349.022c0 12.187 13.808 19.277 23.711 12.211l82.471-58.832c6.917-4.934 15.065-7.542 23.563-7.542h181.382c31.928 0 57.902-25.975 57.902-57.902v-190.331c0-8.284-6.716-15-15-15h-296.127c-31.927 0-57.902 25.974-57.902 57.902zm30-259.494c0-15.386 12.517-27.902 27.902-27.902h281.126v175.331c0 15.386-12.517 27.902-27.902 27.902h-181.382c-14.78 0-28.952 4.537-40.984 13.12l-58.76 41.917z"/><path d="m512 205.876c0-31.932-25.974-57.91-57.9-57.91h-40.07c-8.284 0-15 6.716-15 15s6.716 15 15 15h40.07c15.385 0 27.9 12.521 27.9 27.91v230.364l-58.759-41.915c-12.031-8.583-26.202-13.119-40.981-13.119h-181.39c-15.385 0-27.9-12.521-27.9-27.91v-13.439c0-8.284-6.716-15-15-15s-15 6.716-15 15v13.439c0 31.932 25.974 57.91 57.9 57.91h181.39c8.497 0 16.644 2.607 23.56 7.541l82.47 58.83c9.853 7.031 23.711.015 23.711-12.211v-259.49z"/><path d="m107.862 143.339h173.304c8.284 0 15-6.716 15-15s-6.716-15-15-15h-173.304c-8.284 0-15 6.716-15 15s6.716 15 15 15z"/><path d="m107.862 213.339h173.304c8.284 0 15-6.716 15-15s-6.716-15-15-15h-173.304c-8.284 0-15 6.716-15 15s6.716 15 15 15z"/>
		</g>
	</symbol>
</svg>