<svg xmlns="http://www.w3.org/2000/svg">
	<symbol id="instagram" viewBox="0 0 24 24">
			<path d="m1.5 1.633c-1.886 1.959-1.5 4.04-1.5 10.362 0 5.25-.916 10.513 3.878 11.752 1.497.385 14.761.385 16.256-.002 1.996-.515 3.62-2.134 3.842-4.957.031-.394.031-13.185-.001-13.587-.236-3.007-2.087-4.74-4.526-5.091-.559-.081-.671-.105-3.539-.11-10.173.005-12.403-.448-14.41 1.633z" fill="url(#SVGID_1_)"/><path d="m11.998 3.139c-3.631 0-7.079-.323-8.396 3.057-.544 1.396-.465 3.209-.465 5.805 0 2.278-.073 4.419.465 5.804 1.314 3.382 4.79 3.058 8.394 3.058 3.477 0 7.062.362 8.395-3.058.545-1.41.465-3.196.465-5.804 0-3.462.191-5.697-1.488-7.375-1.7-1.7-3.999-1.487-7.374-1.487zm-.794 1.597c7.574-.012 8.538-.854 8.006 10.843-.189 4.137-3.339 3.683-7.211 3.683-7.06 0-7.263-.202-7.263-7.265 0-7.145.56-7.257 6.468-7.263zm5.524 1.471c-.587 0-1.063.476-1.063 1.063s.476 1.063 1.063 1.063 1.063-.476 1.063-1.063-.476-1.063-1.063-1.063zm-4.73 1.243c-2.513 0-4.55 2.038-4.55 4.551s2.037 4.55 4.55 4.55 4.549-2.037 4.549-4.55-2.036-4.551-4.549-4.551zm0 1.597c3.905 0 3.91 5.908 0 5.908-3.904 0-3.91-5.908 0-5.908z" fill="#fff"/>
	</symbol>
	<symbol id="vk" viewBox="0 0 64 64">
		<g>
			<path d="M9.62,19.77H17.3a.79.79,0,0,1,.74.51c.85,2.19,4.38,10.76,7.61,11.46,2.4,0,1.55-11.4-1.5-11.4-.8,0,1.42-1.42,1.57-1.48a16.38,16.38,0,0,1,8.66,0c1.53.64,1.79,2.43,1.83,3.95s-1.7,8,.59,8.7c3,.92,6.86-8.49,7.76-10.8a.79.79,0,0,1,.74-.5h8.55a.8.8,0,0,1,.74,1.11,74.74,74.74,0,0,1-6.31,11.52,1.59,1.59,0,0,0,.16,2C51,37.58,58,45.34,54,45.34H45.37a1.57,1.57,0,0,1-1.18-.53c-1.34-1.48-5.24-5.6-7-5.27-1.46.27-1.6,2.75-1.53,4.37a1.6,1.6,0,0,1-1.48,1.68c-1.53.09-3.62.13-3.81.12-6.1-.39-9.71-4.46-13.16-9A56.33,56.33,0,0,1,8.86,20.83.81.81,0,0,1,9.62,19.77Z"/>
		</g>
	</symbol>
	<symbol id="email" viewBox="0 0 512 512">
		<g>
		<path d="M467,76H45C20.137,76,0,96.262,0,121v270c0,24.885,20.285,45,45,45h422c24.655,0,45-20.03,45-45V121
			C512,96.306,491.943,76,467,76z M460.698,106c-9.194,9.145-167.415,166.533-172.878,171.967c-8.5,8.5-19.8,13.18-31.82,13.18
			s-23.32-4.681-31.848-13.208C220.478,274.284,64.003,118.634,51.302,106H460.698z M30,384.894V127.125L159.638,256.08L30,384.894z
			 M51.321,406l129.587-128.763l22.059,21.943c14.166,14.166,33,21.967,53.033,21.967c20.033,0,38.867-7.801,53.005-21.939
			l22.087-21.971L460.679,406H51.321z M482,384.894L352.362,256.08L482,127.125V384.894z"/>
		</g>
	</symbol>
	<symbol id="arrow" viewBox="0 0 404.257 404.257">
		<g>
			<polygon points="386.257,114.331 202.128,252.427 18,114.331 0,138.331 202.128,289.927 404.257,138.331 "/>
		</g>
	</symbol>
</svg>